Coordinates
version=1
nRows=17
nColumns=40
inDegrees=yes

Units are S.I. units (second, meters, Newtons, ...)
Angles are in degrees.

endheader
time	pelvis_tilt	pelvis_list	pelvis_rotation	pelvis_tx	pelvis_ty	pelvis_tz	hip_flexion_r	hip_adduction_r	hip_rotation_r	knee_angle_r	knee_angle_r_beta	ankle_angle_r	subtalar_angle_r	mtp_angle_r	hip_flexion_l	hip_adduction_l	hip_rotation_l	knee_angle_l	knee_angle_l_beta	ankle_angle_l	subtalar_angle_l	mtp_angle_l	lumbar_extension	lumbar_bending	lumbar_rotation	arm_flex_r	arm_add_r	arm_rot_r	elbow_flex_r	pro_sup_r	wrist_flex_r	wrist_dev_r	arm_flex_l	arm_add_l	arm_rot_l	elbow_flex_l	pro_sup_l	wrist_flex_l	wrist_dev_l
      0.44000000	     -2.47433782	      5.89659594	     -5.29818000	     -0.38647951	      0.96101135	      0.95730618	     19.64147995	    -18.66799247	    -13.49522269	    -57.13603722	     -0.99721197	      0.20527003	    -17.59522413	     15.48800203	      5.91489701	     -9.21856197	     13.35593956	     -9.35548542	     -0.16328402	      2.20958275	      2.47301455	      0.51906408	     -0.45483327	     -6.72445515	     -1.38438832	      1.58214061	    -10.79648093	     -9.07134360	     19.46659701	     89.95437384	      0.00000000	      0.00000000	      5.46326697	     10.73825618	      7.80587194	     27.26687729	     89.95437384	      0.00000000	      0.00000000
      0.45000000	     -2.55294979	      5.37989445	     -4.45697896	     -0.37830592	      0.96152639	      0.95579847	     20.27381338	    -18.14033808	    -14.59165242	    -55.84934872	     -0.97475502	      0.51962469	    -17.42715859	     15.65141410	      5.19748715	     -8.82717330	     12.76636873	     -9.05366573	     -0.15801628	      2.45085431	      1.99709200	      0.37103070	     -0.59605630	     -6.14106602	     -2.34966011	      1.10198883	    -10.76700929	     -9.53830673	     19.26043713	     89.95437384	      0.00000000	      0.00000000	      6.41437350	     11.06597169	      7.15806504	     28.49457357	     89.95437384	      0.00000000	      0.00000000
      0.46000000	     -2.35084450	      4.84496011	     -3.51491785	     -0.36980307	      0.96235380	      0.95441347	     20.41469589	    -17.67736662	    -15.92812868	    -54.30618981	     -0.94782182	      0.87042225	    -17.17157479	     16.11044550	      4.23143530	     -8.39269933	     12.25662182	     -8.93616384	     -0.15596548	      2.75138804	      1.58292956	      0.05987849	     -1.02109162	     -5.58404225	     -3.36919978	      0.66490083	    -10.65308384	    -10.57236959	     18.95613432	     89.95437384	      0.00000000	      0.00000000	      7.42015312	     11.48896976	      6.26938343	     29.71875593	     89.95437384	      0.00000000	      0.00000000
      0.47000000	     -2.65913282	      4.77856044	     -3.04166924	     -0.36219365	      0.96205972	      0.95320687	     21.66546485	    -17.49630775	    -16.28351301	    -53.03404535	     -0.92561871	      1.09535735	    -16.78360707	     15.92445846	      3.98058116	     -8.41625204	     12.39208695	     -8.82929047	     -0.15410019	      2.95421310	      1.47821795	     -0.01554918	     -0.85057336	     -5.44885231	     -4.03330726	      0.17610391	    -10.67199772	    -10.69481683	     18.96149616	     89.95437384	      0.00000000	      0.00000000	      8.44961913	     11.76114845	      6.14276068	     30.57813383	     89.95437384	      0.00000000	      0.00000000
      0.48000000	     -2.83093690	      4.08184946	     -1.97096531	     -0.35403842	      0.96207082	      0.95198468	     22.13701300	    -16.80424821	    -17.60972757	    -51.27402523	     -0.89490056	      1.31855666	    -16.23622295	     15.96497056	      3.46058451	     -7.74412314	     11.26199270	     -8.71320791	     -0.15207417	      3.22841013	      0.90182834	     -0.30150766	     -0.87247242	     -4.70125867	     -5.15845812	     -0.31192421	    -10.56973893	    -11.83312123	     18.74953511	     89.95437384	      0.00000000	      0.00000000	      9.30741286	     12.21704304	      5.25695961	     31.82649181	     89.95437384	      0.00000000	      0.00000000
      0.49000000	     -2.80829019	      3.62491060	     -1.25197161	     -0.34605600	      0.96215988	      0.95130355	     22.55557143	    -16.23558799	    -18.44222686	    -49.43099632	     -0.86273364	      1.71570930	    -15.52384918	     16.57622214	      2.90416129	     -7.24315480	     11.08572603	     -8.79968087	     -0.15358340	      3.22801560	      0.33678762	     -2.10901455	     -1.11155909	     -4.23590948	     -5.84418583	     -0.62588656	    -10.25693494	    -14.22188862	     18.38002915	     89.95437384	      0.00000000	      0.00000000	     10.41557468	     12.63308193	      4.43233118	     32.73359201	     89.95437384	      0.00000000	      0.00000000
      0.50000000	     -3.11329042	      3.66362270	     -0.87609194	     -0.33816385	      0.96138190	      0.95054716	     23.68321824	    -16.16207251	    -18.72931214	    -47.83219400	     -0.83482927	      1.93862833	    -15.03357271	     16.35538875	      2.69457326	     -7.34571045	     11.19758298	     -8.79137124	     -0.15343837	      3.46879128	      0.29401902	     -2.17644547	     -0.84817509	     -4.26109522	     -6.38305120	     -1.13652829	    -10.28568087	    -14.31818104	     18.36150869	     89.95437384	      0.00000000	      0.00000000	     11.32614013	     12.95396830	      4.30222603	     33.47902367	     89.95437384	      0.00000000	      0.00000000
      0.51000000	     -3.05459878	      2.96723297	      0.08529276	     -0.33011668	      0.96131874	      0.94987048	     23.74723122	    -15.43684067	    -19.96931184	    -45.60789604	     -0.79600795	      2.16393161	    -13.96978430	     16.13952218	      2.13630157	     -6.59354220	     10.17457084	     -8.98765740	     -0.15686421	      3.99242607	      0.06937849	     -2.66382147	     -1.10997355	     -3.54422478	     -7.34168453	     -1.51119850	    -10.10737330	    -16.00435508	     18.14430834	     89.95437384	      0.00000000	      0.00000000	     12.31212604	     13.46877862	      3.22410238	     34.36821497	     89.95437384	      0.00000000	      0.00000000
      0.52000000	     -3.37626343	      3.07790036	      0.39304673	     -0.32212621	      0.96029233	      0.94946521	     24.80501443	    -15.40847247	    -20.20256687	    -43.80763968	     -0.76458755	      2.30130064	    -13.44896118	     15.93570796	      1.93644436	     -6.74117628	     10.31501912	     -8.96356425	     -0.15644371	      4.23312477	     -0.01314098	     -2.75157486	     -0.83230653	     -3.67856074	     -7.77837355	     -2.00287890	    -10.09407346	    -16.24367622	     18.10143613	     89.95437384	      0.00000000	      0.00000000	     13.18031867	     13.78534906	      3.07972470	     35.05957569	     89.95437384	      0.00000000	      0.00000000
      0.53000000	     -3.08642392	      2.48830866	      0.97901735	     -0.31387570	      0.96038854	      0.94944471	     24.62161547	    -14.65379394	    -21.15297400	    -41.32920007	     -0.72133062	      2.27265921	    -12.25692822	     15.62317090	      1.08329145	     -6.00339536	     10.17507845	     -8.99093338	     -0.15692139	      4.29681411	     -0.89855442	     -4.04513789	     -1.34734304	     -3.04538776	     -8.18898878	     -2.08488157	     -9.70609978	    -19.77469210	     17.47788404	     89.95437384	      0.00000000	      0.00000000	     14.34701830	     14.20707614	      1.87239259	     35.60464561	     89.95437384	      0.00000000	      0.00000000
      0.54000000	     -3.36592423	      2.69638711	      1.20613195	     -0.30581811	      0.95916078	      0.94925113	     25.58370135	    -14.74665140	    -21.43377337	    -39.45922628	     -0.68869342	      2.33905193	    -11.81634068	     15.47326553	      0.86611647	     -6.24426506	     10.27798857	     -9.05235935	     -0.15799348	      4.60194976	     -0.93582459	     -4.13819085	     -1.10777119	     -3.28202293	     -8.55246597	     -2.52551545	     -9.71611106	    -19.85697306	     17.41320145	     89.95437384	      0.00000000	      0.00000000	     15.15825599	     14.53729915	      1.73609277	     36.17232765	     89.95437384	      0.00000000	      0.00000000
      0.55000000	     -2.91087908	      2.17487687	      1.70251069	     -0.29741017	      0.95938814	      0.94953244	     25.09276106	    -13.98418960	    -22.32516723	    -36.70325573	     -0.64059266	      1.81755328	    -10.73335043	     15.31213563	     -0.23752529	     -5.57805527	      9.88491197	     -8.95542463	     -0.15630165	      4.85009344	     -1.32108661	     -5.04152617	     -1.78038614	     -2.71445467	     -8.98757980	     -2.64506625	     -9.50948062	    -22.04802170	     16.98701642	     89.95437384	      0.00000000	      0.00000000	     16.23573835	     14.99871356	      0.62773018	     36.64300095	     89.95437384	      0.00000000	      0.00000000
      0.56000000	     -3.21345751	      2.44769226	      1.87480601	     -0.28922813	      0.95786280	      0.94947375	     26.02184612	    -14.14510986	    -22.63952046	    -34.83784138	     -0.60803504	      1.95558952	    -10.32960277	     15.13004624	     -0.49823596	     -5.88641342	     10.09773041	     -8.91774311	     -0.15564398	      5.22481020	     -1.36227425	     -5.12268105	     -1.50119772	     -3.02266343	     -9.26190714	     -3.05632018	     -9.54046809	    -22.10121325	     16.85961364	     89.95437384	      0.00000000	      0.00000000	     16.98113211	     15.29213238	      0.49920280	     37.07002909	     89.95437384	      0.00000000	      0.00000000
      0.57000000	     -3.42200984	      2.67714392	      2.06901779	     -0.28084852	      0.95663793	      0.94967615	     26.61726331	    -14.12658758	    -22.80818583	    -32.54639443	     -0.56804174	      1.83293446	     -9.68845441	     15.11739837	     -0.89038679	     -6.11553212	     10.07294168	     -8.85661697	     -0.15457713	      5.52392712	     -1.49827691	     -5.24746687	     -1.32309982	     -3.29758595	     -9.53456767	     -3.39860582	     -9.52817627	    -22.39443824	     16.62624386	     89.95437384	      0.00000000	      0.00000000	     17.69295783	     15.63067052	      0.17743943	     37.44803514	     89.95437384	      0.00000000	      0.00000000
      0.58000000	     -2.59944990	      1.98546426	      2.38299479	     -0.27209501	      0.95727657	      0.95073315	     25.51413655	    -12.99889072	    -23.55820857	    -29.50259067	     -0.51491734	      1.27468670	     -8.16526512	     14.41547412	     -2.42224009	     -5.10350164	     10.42746659	     -8.71908996	     -0.15217683	      5.30022589	     -2.73310060	     -7.09541590	     -2.42219017	     -2.52782779	     -9.61477400	     -3.25692503	     -9.23591932	    -25.72305768	     15.94548347	     89.95437384	      0.00000000	      0.00000000	     18.84736079	     15.96856322	     -1.04660388	     37.66672092	     89.95437384	      0.00000000	      0.00000000
      0.59000000	     -2.52023119	      1.92004525	      2.49959804	     -0.26352345	      0.95634840	      0.95142864	     25.59648276	    -12.57364832	    -23.79537830	    -27.01190022	     -0.47144660	      0.78836072	     -7.33910625	     11.97613634	     -3.10574884	     -4.88596069	     10.89743394	     -8.62773145	     -0.15058232	      4.64698994	     -3.29006968	    -11.38774394	     -2.59446649	     -2.46095710	     -9.75468801	     -3.44898518	     -9.21176084	    -26.38689709	     15.65158088	     89.95437384	      0.00000000	      0.00000000	     19.57023607	     16.26222517	     -1.46528223	     37.95085564	     89.95437384	      0.00000000	      0.00000000
      0.60000000	     -2.75335250	      2.14635864	      2.59418992	     -0.25526335	      0.95488949	      0.95207008	     26.19316165	    -12.51453929	    -23.81312194	    -24.88876082	     -0.43439082	      0.82285703	     -6.47216087	     11.96383782	     -3.46705050	     -5.07651796	     10.87452693	     -8.55254849	     -0.14927013	      4.84250885	     -3.33708115	    -11.43899842	     -2.44098348	     -2.74278876	     -9.89698710	     -3.71025822	     -9.18401681	    -26.52688386	     15.46119674	     89.95437384	      0.00000000	      0.00000000	     20.18881316	     16.50766310	     -1.63156965	     38.20271226	     89.95437384	      0.00000000	      0.00000000
